<svg width="40" height="40" viewBox="0 0 40 40" fill="none" xmlns="http://www.w3.org/2000/svg">
<circle cx="20" cy="20" r="20" fill="#F1F1F1"/>
<path d="M22.69 14.71C22.7827 14.8025 22.8563 14.9124 22.9064 15.0334C22.9566 15.1544 22.9824 15.2841 22.9824 15.415C22.9824 15.546 22.9566 15.6757 22.9064 15.7966C22.8563 15.9176 22.7827 16.0275 22.69 16.12L18.81 20L22.69 23.88C22.877 24.067 22.982 24.3206 22.982 24.585C22.982 24.8494 22.877 25.103 22.69 25.29C22.503 25.477 22.2494 25.582 21.985 25.582C21.7206 25.582 21.467 25.477 21.28 25.29L16.69 20.7C16.5973 20.6075 16.5237 20.4976 16.4736 20.3766C16.4234 20.2557 16.3976 20.126 16.3976 19.995C16.3976 19.8641 16.4234 19.7344 16.4736 19.6134C16.5237 19.4924 16.5973 19.3825 16.69 19.29L21.28 14.7C21.66 14.32 22.3 14.32 22.69 14.71Z" fill="#949494"/>
</svg>
