<svg width="40" height="40" viewBox="0 0 40 40" fill="none" xmlns="http://www.w3.org/2000/svg">
<circle cx="20" cy="20" r="20" fill="#008F76"/>
<path d="M17.31 14.71C17.2173 14.8025 17.1437 14.9124 17.0936 15.0334C17.0434 15.1544 17.0176 15.2841 17.0176 15.415C17.0176 15.546 17.0434 15.6757 17.0936 15.7966C17.1437 15.9176 17.2173 16.0275 17.31 16.12L21.19 20L17.31 23.88C17.123 24.067 17.018 24.3206 17.018 24.585C17.018 24.8494 17.123 25.103 17.31 25.29C17.497 25.477 17.7506 25.582 18.015 25.582C18.2794 25.582 18.533 25.477 18.72 25.29L23.31 20.7C23.4027 20.6075 23.4763 20.4976 23.5264 20.3766C23.5766 20.2557 23.6024 20.126 23.6024 19.995C23.6024 19.8641 23.5766 19.7344 23.5264 19.6134C23.4763 19.4924 23.4027 19.3825 23.31 19.29L18.72 14.7C18.34 14.32 17.7 14.32 17.31 14.71Z" fill="white"/>
</svg>
