<svg width="30" height="24" viewBox="0 0 30 24" fill="none" xmlns="http://www.w3.org/2000/svg">
<path d="M20.3333 4.37328C20.3332 5.17556 20.0159 5.94527 19.4507 6.51461C18.1493 7.82661 16.8867 9.19461 15.536 10.4586C15.3852 10.596 15.1874 10.6702 14.9835 10.666C14.7795 10.6618 14.585 10.5794 14.44 10.4359L10.5493 6.51594C9.98378 5.94623 9.6664 5.17603 9.6664 4.37328C9.6664 3.57052 9.98378 2.80032 10.5493 2.23061C10.8315 1.94632 11.1672 1.72068 11.537 1.56671C11.9068 1.41274 12.3034 1.33347 12.704 1.33347C13.1046 1.33347 13.5012 1.41274 13.871 1.56671C14.2408 1.72068 14.5765 1.94632 14.8587 2.23061L15 2.37328L15.1413 2.23061C15.5649 1.80243 16.1064 1.50998 16.6967 1.39051C17.287 1.27103 17.8996 1.32992 18.4563 1.55969C19.0131 1.78946 19.4889 2.1797 19.8231 2.68075C20.1574 3.18179 20.335 3.77097 20.3333 4.37328V4.37328Z" stroke="white" stroke-width="1.5" stroke-linejoin="round"/>
<path d="M23 22.6667L28.0987 17.568C28.2487 17.4181 28.3331 17.2148 28.3333 17.0027V10C28.3333 9.46957 28.1226 8.96086 27.7475 8.58579C27.3725 8.21071 26.8638 8 26.3333 8V8C25.8029 8 25.2942 8.21071 24.9191 8.58579C24.544 8.96086 24.3333 9.46957 24.3333 10V16" stroke="white" stroke-width="1.5" stroke-linecap="round" stroke-linejoin="round"/>
<path d="M23 17.3333L24.144 16.1893C24.2041 16.1293 24.2518 16.058 24.2843 15.9795C24.3167 15.9011 24.3334 15.8169 24.3333 15.732C24.3331 15.6121 24.2996 15.4946 24.2365 15.3927C24.1734 15.2907 24.0832 15.2083 23.976 15.1547L23.3853 14.86C22.8849 14.6098 22.3185 14.5233 21.7662 14.6128C21.2139 14.7023 20.7038 14.9632 20.308 15.3587L19.1147 16.552C18.6145 17.052 18.3335 17.7301 18.3333 18.4373V22.6667M7 22.6667L1.90133 17.568C1.75126 17.4181 1.66685 17.2148 1.66666 17.0027V10C1.66666 9.46957 1.87738 8.96086 2.25245 8.58579C2.62752 8.21071 3.13623 8 3.66666 8V8C4.1971 8 4.70581 8.21071 5.08088 8.58579C5.45595 8.96086 5.66666 9.46957 5.66666 10V16" stroke="white" stroke-width="1.5" stroke-linecap="round" stroke-linejoin="round"/>
<path d="M7 17.3332L5.856 16.1892C5.79595 16.1292 5.74833 16.0579 5.71584 15.9794C5.68336 15.9009 5.66665 15.8168 5.66666 15.7319V15.7319C5.66666 15.4879 5.80533 15.2652 6.024 15.1546L6.61466 14.8599C7.11508 14.6097 7.68151 14.5232 8.23379 14.6127C8.78607 14.7022 9.29621 14.9631 9.692 15.3586L10.8853 16.5519C11.3855 17.0519 11.6665 17.73 11.6667 18.4372V22.6666" stroke="white" stroke-width="1.5" stroke-linecap="round" stroke-linejoin="round"/>
</svg>
