<svg width="32" height="32" viewBox="0 0 32 32" fill="none" xmlns="http://www.w3.org/2000/svg">
<path d="M16 4H10.6667C6.98477 4 4 6.98477 4 10.6667V21.3333C4 25.0152 6.98477 28 10.6667 28H21.3333C25.0152 28 28 25.0152 28 21.3333V10.6667C28 6.98477 25.0152 4 21.3333 4H16Z" stroke="#212121" stroke-width="2" stroke-linecap="round" stroke-linejoin="round"/>
<path d="M16 10.6666C18.9455 10.6666 21.3334 13.0544 21.3334 16C21.3334 18.9455 18.9455 21.3333 16 21.3333C13.0545 21.3333 10.6667 18.9454 10.6667 16C10.6667 13.0544 13.0545 10.6666 16 10.6666Z" stroke="#212121" stroke-width="2" stroke-linecap="round" stroke-linejoin="round"/>
<path d="M22.6667 11.3334C23.7713 11.3334 24.6667 10.4379 24.6667 9.33337C24.6667 8.2288 23.7713 7.33337 22.6667 7.33337C21.5621 7.33337 20.6667 8.2288 20.6667 9.33337C20.6667 10.4379 21.5621 11.3334 22.6667 11.3334Z" fill="#212121"/>
</svg>
